HIERARCHY
ROOT root
{
	OFFSET 0.000000 0.000000 0.000000
	CHANNELS 6 Xposition Yposition Zposition Zrotation Yrotation Xrotation
	JOINT lhip
	{
		OFFSET 0.058581 -0.082280 -0.017664
		CHANNELS 3 Zrotation Yrotation Xrotation
		JOINT lknee
		{
			OFFSET 0.043451 -0.386469 0.008037
			CHANNELS 3 Zrotation Yrotation Xrotation
			JOINT lankle
			{
				OFFSET -0.014790 -0.426874 -0.037428
				CHANNELS 3 Zrotation Yrotation Xrotation
				JOINT ltoe
				{
					OFFSET 0.041054 -0.060286 0.122042
					CHANNELS 3 Zrotation Yrotation Xrotation
					End Site
					{
						OFFSET 0.000000 0.000000 0.000000
					}
				}
			}
		}
	}
	JOINT rhip
	{
		OFFSET -0.060310 -0.090513 -0.013543
		CHANNELS 3 Zrotation Yrotation Xrotation
		JOINT rknee
		{
			OFFSET -0.043257 -0.383688 -0.004843
			CHANNELS 3 Zrotation Yrotation Xrotation
			JOINT rankle
			{
				OFFSET 0.019056 -0.420046 -0.034562
				CHANNELS 3 Zrotation Yrotation Xrotation
				JOINT rtoe
				{
					OFFSET -0.034840 -0.062106 0.130323
					CHANNELS 3 Zrotation Yrotation Xrotation
					End Site
					{
						OFFSET 0.000000 0.000000 0.000000
					}
				}
			}
		}
	}
	JOINT lowerback
	{
		OFFSET 0.004439 0.124404 -0.038385
		CHANNELS 3 Zrotation Yrotation Xrotation
		JOINT upperback
		{
			OFFSET 0.004488 0.137956 0.026820
			CHANNELS 3 Zrotation Yrotation Xrotation
			JOINT chest
			{
				OFFSET -0.002265 0.056032 0.002855
				CHANNELS 3 Zrotation Yrotation Xrotation
				JOINT lowerneck
				{
					OFFSET -0.013390 0.211636 -0.033468
					CHANNELS 3 Zrotation Yrotation Xrotation
					JOINT upperneck
					{
						OFFSET 0.010113 0.088937 0.050410
						CHANNELS 3 Zrotation Yrotation Xrotation
						End Site
						{
							OFFSET 0.000000 0.000000 0.000000
						}
					}
				}
				JOINT lclavicle
				{
					OFFSET 0.071702 0.114000 -0.018898
					CHANNELS 3 Zrotation Yrotation Xrotation
					JOINT lshoulder
					{
						OFFSET 0.122921 0.045205 -0.019046
						CHANNELS 3 Zrotation Yrotation Xrotation
						JOINT lelbow
						{
							OFFSET 0.255332 -0.015649 -0.022946
							CHANNELS 3 Zrotation Yrotation Xrotation
							JOINT lwrist
							{
								OFFSET 0.265709 0.012698 -0.007375
								CHANNELS 3 Zrotation Yrotation Xrotation
								End Site
								{
									OFFSET 0.000000 0.000000 0.000000
								}
							}
						}
					}
				}
				JOINT rclavicle
				{
					OFFSET -0.082954 0.112472 -0.023707
					CHANNELS 3 Zrotation Yrotation Xrotation
					JOINT rshoulder
					{
						OFFSET -0.113228 0.046853 -0.008472
						CHANNELS 3 Zrotation Yrotation Xrotation
						JOINT relbow
						{
							OFFSET -0.260127 -0.014369 -0.031269
							CHANNELS 3 Zrotation Yrotation Xrotation
							JOINT rwrist
							{
								OFFSET -0.269108 0.006794 -0.006027
								CHANNELS 3 Zrotation Yrotation Xrotation
								End Site
								{
									OFFSET 0.000000 0.000000 0.000000
								}
							}
						}
					}
				}
			}
		}
	}
}
MOTION
Frames: 8
Frame Time: 0.033333
1.558337 -0.038441 1.008435 97.926773 0.689024 82.617098 0.465418 -0.891521 2.314696 -14.876947 -9.300134 54.392090 -7.118409 1.351473 15.639249 0.000000 -0.000000 0.000000 4.935616 0.628163 -7.863933 0.601593 -4.959826 18.791777 -4.120994 -8.537530 -4.786551 0.000000 -0.000000 0.000000 0.343113 -1.814101 12.831857 3.726059 -1.018581 -0.433314 0.623974 -3.399801 1.383715 -0.210959 4.262886 1.727620 -4.161948 1.728670 16.615394 -28.585191 5.777000 3.013599 -51.845669 -8.903931 10.299055 5.221095 -31.283567 11.302438 -8.564431 -3.312365 -4.982741 33.226291 -2.403228 0.378509 50.088526 3.699888 12.436729 -11.746735 12.921863 -9.093728 9.300928 1.537280 -8.133591 
1.593769 -0.039883 1.011537 95.832049 0.315309 81.866278 0.534130 -0.567197 -1.318859 -12.743475 -5.282123 57.433401 -4.901096 3.288481 10.502687 0.000000 -0.000000 0.000000 5.352602 -0.189143 -3.967088 0.551965 -3.122884 17.456241 -3.899822 -7.685440 -6.174432 0.000000 -0.000000 0.000000 -0.034631 -0.293928 13.166183 3.455167 -0.724161 -0.874183 0.599865 -2.656840 1.931963 0.088795 3.834862 1.973631 -4.199257 1.479889 17.395118 -28.823315 6.342086 2.649303 -52.450388 -7.411236 10.290451 4.522707 -30.684165 12.849354 -8.105285 -3.062691 -3.861113 32.955754 -1.945726 0.502260 50.115216 4.641461 12.360125 -11.633071 13.703677 -8.949579 8.573113 1.647843 -8.242803 
1.628285 -0.040991 1.014302 93.299740 -0.285302 81.324894 0.612902 -1.072806 -4.596510 -11.521942 -1.664235 58.024817 -1.724190 4.550463 6.082140 0.000000 -0.000000 0.000000 5.113602 -0.888476 -0.034084 0.710675 -1.046537 15.560654 -3.408824 -6.857878 -6.982331 0.000000 -0.000000 0.000000 -0.402846 1.476068 13.186739 3.063708 -0.409899 -1.006028 0.503526 -1.770159 2.094304 0.184885 3.214942 2.809935 -4.011056 1.471193 17.355481 -29.056658 6.771842 2.814186 -53.072859 -5.846005 9.894157 4.303145 -29.800691 13.576169 -8.517582 -2.398749 -4.122828 32.531756 -1.552745 0.919657 50.296942 5.552702 11.910568 -11.836366 15.049166 -9.330266 8.157894 1.605503 -8.848330 
1.660674 -0.041463 1.015729 90.861367 -0.924671 81.133404 0.629257 -1.370688 -7.997955 -10.789555 0.417178 56.771671 -0.168528 5.411228 0.728375 0.000000 -0.000000 0.000000 4.482567 -1.429689 2.954109 0.868439 0.862529 14.452736 -2.561472 -5.958317 -8.362033 0.000000 -0.000000 0.000000 -0.663217 2.961248 13.430332 2.561202 0.030313 -1.546286 0.290836 -1.016145 2.439269 0.495077 3.087734 2.993065 -4.271342 1.311687 17.686614 -29.228172 7.416509 2.409050 -53.666190 -4.553238 9.645250 4.136511 -28.331591 13.404269 -8.097004 -2.357809 -4.686219 32.167976 -1.423823 0.599106 50.423658 6.673033 11.912310 -11.873627 16.621184 -9.584461 7.405667 2.126965 -9.701553 
1.691179 -0.041394 1.015297 88.475677 -1.454239 81.036641 0.892782 -1.947298 -10.988145 -10.254494 1.911479 53.351902 0.735708 5.956136 -3.381123 0.000000 -0.000000 0.000000 3.789213 -1.780712 5.204607 0.981409 2.637044 14.256719 -1.805881 -5.364386 -9.941424 0.000000 -0.000000 0.000000 -0.743901 4.221202 13.648260 2.041081 0.344854 -1.819041 0.051742 -0.331508 2.687168 0.658263 3.234182 2.875173 -4.612309 1.114054 17.788679 -29.588214 7.813488 2.015804 -54.187992 -3.356927 9.261431 4.440601 -26.879890 12.421699 -7.698517 -2.172910 -5.492592 31.801548 -0.801716 0.728154 50.386197 8.026800 12.090321 -12.351350 18.985115 -10.009658 6.569133 2.617743 -10.038211 
1.721300 -0.041127 1.013619 86.327714 -1.719723 81.108083 1.449352 -2.309034 -13.399835 -9.304099 2.581882 47.726602 1.161687 6.576706 -5.955999 0.000000 -0.000000 0.000000 3.330589 -2.136998 6.886723 0.930192 4.153535 14.699793 -1.199314 -4.752593 -11.588062 0.000000 -0.000000 0.000000 -0.596118 5.219274 14.131129 1.537369 0.684636 -2.402230 -0.219231 0.200334 2.658088 0.851148 3.720005 2.448069 -4.840404 0.799876 18.424702 -29.835723 8.630707 1.572815 -54.620031 -2.334043 9.000409 4.642785 -25.506699 11.934154 -7.304118 -2.030804 -5.615432 31.429690 -0.542863 0.572827 50.226108 9.133159 12.411729 -12.464480 21.303975 -10.005863 5.954464 3.022896 -10.166954 
1.750024 -0.040131 1.010995 84.955991 -1.944605 81.483009 1.637840 -2.948903 -15.361531 -7.991845 2.336629 40.399965 1.708223 7.627547 -6.759966 0.000000 -0.000000 0.000000 2.937291 -2.004183 8.297823 0.953412 5.443850 15.076108 -1.021194 -4.820184 -12.725207 0.000000 -0.000000 0.000000 -0.675056 5.681878 14.124124 1.172005 0.808369 -2.547993 -0.352451 0.551453 2.623891 0.972757 4.183823 2.015620 -5.177736 0.415022 18.641883 -30.108854 8.955183 1.033944 -54.950119 -1.657701 9.134680 4.791404 -23.842915 11.641440 -7.055098 -1.725574 -5.334459 31.141578 -0.007488 0.435250 49.985848 10.476727 12.816811 -12.886380 23.464768 -10.691693 5.432354 3.153071 -10.298745 
1.779337 -0.038761 1.007627 83.857489 -1.869570 82.054830 1.787638 -2.829503 -16.371400 -6.446671 1.204912 31.026126 1.746874 7.841692 -7.360020 0.000000 -0.000000 0.000000 2.623380 -2.189161 9.721921 0.937530 6.279726 14.970900 -0.452593 -4.528811 -14.032711 0.000000 -0.000000 0.000000 -0.471886 6.022290 14.113743 0.856762 0.861129 -2.844512 -0.444169 0.706447 2.357254 1.174072 5.053967 1.687901 -5.666046 0.474961 18.713413 -30.225467 9.192284 0.637831 -55.252279 -0.914224 9.120471 4.660384 -22.439747 11.798959 -7.181473 -1.372057 -4.712020 30.764145 0.186476 0.246689 49.850302 11.609613 13.002348 -13.226779 25.362030 -10.770223 5.201144 3.878269 -10.042007 
